<svg width="58" height="58" viewBox="0 0 58 58" fill="none" xmlns="http://www.w3.org/2000/svg">
<circle cx="29" cy="29" r="29" fill="#FCD5CE"/>
<path d="M23.5312 29.7188C23.5312 28.1354 23.5938 26.4479 23.7188 24.6562C23.0104 24.5104 22.3802 24.3177 21.8281 24.0781C21.276 23.8281 20.901 23.5781 20.7031 23.3281C20.7031 21.974 20.901 20.7969 21.2969 19.7969H27.1875C28.0104 19.7969 28.625 19.9844 29.0312 20.3594C29.4479 20.7344 29.7135 21.2031 29.8281 21.7656C29.9427 22.3281 30 23.026 30 23.8594C30 25.224 29.9479 26.6354 29.8438 28.0938C29.75 29.5521 29.6042 31.3854 29.4062 33.5938C29.2917 34.7188 29.1771 36.0677 29.0625 37.6406C28.2188 38.099 27.2812 38.3281 26.25 38.3281C25.3542 38.3281 24.5104 38.1667 23.7188 37.8438C23.5938 35.8125 23.5312 33.1042 23.5312 29.7188ZM37.6406 31.7344C39.0156 31.7344 40.0156 32.0365 40.6406 32.6406C41.276 33.2344 41.5938 33.9844 41.5938 34.8906C41.5938 35.4948 41.401 36.0625 41.0156 36.5938C40.6406 37.1146 40.1458 37.5312 39.5312 37.8438C38.9271 38.1562 38.2969 38.3125 37.6406 38.3125C36.9844 38.3125 36.349 38.1562 35.7344 37.8438C35.1302 37.5312 34.6354 37.1146 34.25 36.5938C33.875 36.0625 33.6875 35.4948 33.6875 34.8906C33.6875 33.9844 34 33.2344 34.625 32.6406C35.2604 32.0365 36.2656 31.7344 37.6406 31.7344Z" fill="white"/>
</svg>
