<svg width="58" height="58" viewBox="0 0 58 58" fill="none" xmlns="http://www.w3.org/2000/svg">
<circle cx="29" cy="29" r="29" fill="#FCD5CE"/>
<path d="M18.1094 34.3281C18.1094 33.5677 18.2969 32.8594 18.6719 32.2031C19.0573 31.5365 19.6562 30.9688 20.4688 30.5C20.6875 30.5 21.0781 30.5781 21.6406 30.7344C22.2031 30.8906 22.5312 30.9844 22.625 31.0156C22.7708 31.0781 22.9219 31.125 23.0781 31.1562C23.4844 30.8125 23.9323 30.3542 24.4219 29.7812C24.9219 29.1979 25.3698 28.5938 25.7656 27.9688C26.1615 27.3333 26.4271 26.7708 26.5625 26.2812C26.5208 26.0729 26.4688 25.8906 26.4062 25.7344C26.3542 25.5781 26.2552 25.4375 26.1094 25.3125C25.7031 25.2292 25.2656 25.1875 24.7969 25.1875C23.5677 25.1875 22.0104 25.6094 20.125 26.4531C19.6875 25.9427 19.3229 25.3125 19.0312 24.5625C18.75 23.8021 18.6094 23.0104 18.6094 22.1875C18.6094 22 18.6146 21.8594 18.625 21.7656C19.0521 21.3385 19.7865 20.8542 20.8281 20.3125C21.8802 19.7604 23.3229 19.4844 25.1562 19.4844C27.4062 19.4844 29.2812 19.8854 30.7812 20.6875C32.2812 21.4792 33.0312 22.7865 33.0312 24.6094C33.0312 25.9115 32.625 27.0729 31.8125 28.0938C31.0104 29.1146 30.1615 29.9167 29.2656 30.5C28.3698 31.0833 27.375 31.6562 26.2812 32.2188V32.4531L30.1094 32.8906L31.0469 31.1406L33.6094 31.3438C33.8177 31.875 33.9792 32.375 34.0938 32.8438C34.2188 33.3125 34.2812 33.7917 34.2812 34.2812C34.2812 35.0104 34.1198 35.6823 33.7969 36.2969C33.474 36.9115 33.026 37.401 32.4531 37.7656C31.8906 38.1302 31.2656 38.3125 30.5781 38.3125C29.5781 38.3125 28.5469 38.0521 27.4844 37.5312C26.4219 37 25.3958 36.3229 24.4062 35.5C23.9375 36.3125 23.3958 36.9427 22.7812 37.3906C22.1667 37.8385 21.401 38.0938 20.4844 38.1562C20.0156 38.0312 19.599 37.7812 19.2344 37.4062C18.8802 37.0312 18.6042 36.5781 18.4062 36.0469C18.2083 35.5052 18.1094 34.9323 18.1094 34.3281ZM40.1094 31.7344C41.4844 31.7344 42.4844 32.0365 43.1094 32.6406C43.7448 33.2344 44.0625 33.9844 44.0625 34.8906C44.0625 35.4948 43.8698 36.0625 43.4844 36.5938C43.1094 37.1146 42.6146 37.5312 42 37.8438C41.3958 38.1562 40.7656 38.3125 40.1094 38.3125C39.4531 38.3125 38.8177 38.1562 38.2031 37.8438C37.599 37.5312 37.1042 37.1146 36.7188 36.5938C36.3438 36.0625 36.1562 35.4948 36.1562 34.8906C36.1562 33.9844 36.4688 33.2344 37.0938 32.6406C37.7292 32.0365 38.7344 31.7344 40.1094 31.7344Z" fill="white"/>
</svg>
