<svg width="58" height="58" viewBox="0 0 58 58" fill="none" xmlns="http://www.w3.org/2000/svg">
<circle cx="29" cy="29" r="29" fill="#FCD5CE"/>
<path d="M20 36.0156C21.2812 36.8073 22.4583 37.3698 23.5312 37.7031C24.6146 38.026 25.5833 38.1875 26.4375 38.1875C26.9896 38.1875 27.4323 38.0833 27.7656 37.875C27.901 37.6771 28 37.4271 28.0625 37.125C28.1354 36.8229 28.1771 36.5052 28.1875 36.1719C28.1875 35.8385 28.1719 35.5625 28.1406 35.3438C27.9427 35.0312 27.5625 34.6875 27 34.3125C26.4479 33.9375 25.776 33.5625 24.9844 33.1875C24.6615 33.4479 24.2969 33.6719 23.8906 33.8594C23.4948 34.0469 23.099 34.1823 22.7031 34.2656C22.3594 34.151 22.0312 33.9479 21.7188 33.6562C21.4062 33.3542 21.151 32.9896 20.9531 32.5625C20.7656 32.1354 20.6719 31.6979 20.6719 31.25C20.6719 30.7188 20.8229 30.2135 21.125 29.7344C21.4271 29.2552 21.8958 28.8385 22.5312 28.4844C22.7917 28.4844 23.1198 28.5469 23.5156 28.6719C23.9115 28.7969 24.2812 28.974 24.625 29.2031L25.2188 25.6719L19.25 26.6875C18.8542 26.2396 18.5365 25.7812 18.2969 25.3125C18.0677 24.8333 17.9531 24.2448 17.9531 23.5469C17.9531 22.7344 18.1094 22.0208 18.4219 21.4062C18.7344 20.7917 19.1562 20.3177 19.6875 19.9844C20.2292 19.651 20.8333 19.4844 21.5 19.4844C22.3854 19.4844 23.3281 19.6823 24.3281 20.0781C25.3281 20.4635 26.2552 20.9531 27.1094 21.5469C27.3698 21.2656 27.7708 20.9688 28.3125 20.6562C28.8542 20.3333 29.4375 20.0625 30.0625 19.8438C30.6875 19.625 31.25 19.5052 31.75 19.4844C32.3854 19.7552 32.8802 20.2865 33.2344 21.0781C33.5885 21.8698 33.7656 22.7708 33.7656 23.7812C33.7656 24.5417 33.6615 25.2344 33.4531 25.8594C33.0885 26.099 32.5573 26.2188 31.8594 26.2188C31.4323 26.2188 30.9635 26.1823 30.4531 26.1094C30.1615 26.6094 29.7552 27.2188 29.2344 27.9375C28.724 28.6562 28.1406 29.3958 27.4844 30.1562C27.5781 30.1458 27.724 30.1406 27.9219 30.1406C28.9531 30.1406 29.9323 30.3542 30.8594 30.7812C31.7969 31.1979 32.5469 31.7812 33.1094 32.5312C33.6719 33.2708 33.9427 34.1042 33.9219 35.0312C33.8802 36.625 33.4323 38.0156 32.5781 39.2031C31.724 40.401 30.599 41.3177 29.2031 41.9531C27.8177 42.599 26.3125 42.9219 24.6875 42.9219C23.0729 42.9219 21.6146 42.6562 20.3125 42.125C19.0104 41.5938 18.2188 40.6198 17.9375 39.2031C18.1458 38.526 18.4271 37.8958 18.7812 37.3125C19.1354 36.7292 19.5417 36.2969 20 36.0156ZM40.4062 31.7344C41.7812 31.7344 42.7812 32.0365 43.4062 32.6406C44.0417 33.2344 44.3594 33.9844 44.3594 34.8906C44.3594 35.4948 44.1667 36.0625 43.7812 36.5938C43.4062 37.1146 42.9115 37.5312 42.2969 37.8438C41.6927 38.1562 41.0625 38.3125 40.4062 38.3125C39.75 38.3125 39.1146 38.1562 38.5 37.8438C37.8958 37.5312 37.401 37.1146 37.0156 36.5938C36.6406 36.0625 36.4531 35.4948 36.4531 34.8906C36.4531 33.9844 36.7656 33.2344 37.3906 32.6406C38.026 32.0365 39.0312 31.7344 40.4062 31.7344Z" fill="white"/>
</svg>
