<svg width="198" height="140" viewBox="0 0 198 140" fill="none" xmlns="http://www.w3.org/2000/svg">
<path d="M33.9902 127.539C33.9902 126.061 34.2083 124.746 34.6445 123.594C35.0872 122.435 35.7773 121.52 36.7148 120.85C37.6523 120.179 38.8372 119.844 40.2695 119.844C41.2461 119.844 42.278 119.971 43.3652 120.225C43.7168 120.433 44.0228 120.651 44.2832 120.879C44.5501 121.1 44.804 121.37 45.0449 121.689C45.0449 122.152 44.9831 122.767 44.8594 123.535C44.7357 124.297 44.5794 125.01 44.3906 125.674C44.2083 126.331 44.0326 126.758 43.8633 126.953C43.694 127.038 43.5508 127.096 43.4336 127.129C43.3164 127.155 43.1341 127.168 42.8867 127.168C42.5807 127.168 42.2943 127.145 42.0273 127.1C41.7604 127.054 41.5586 126.992 41.4219 126.914L41.0801 123.623C40.6178 123.493 39.9766 123.428 39.1562 123.428C38.9349 123.428 38.7721 123.431 38.668 123.438C38.388 124.336 38.2318 125.544 38.1992 127.061C38.1927 127.243 38.1895 127.52 38.1895 127.891C38.1895 128.763 38.235 129.469 38.3262 130.01C38.4108 130.518 38.502 130.898 38.5996 131.152C38.6973 131.406 38.8665 131.602 39.1074 131.738C39.3548 131.875 39.7227 131.943 40.2109 131.943C40.8685 131.943 41.474 131.849 42.0273 131.66C42.5872 131.465 43.196 131.182 43.8535 130.811C44.1009 131.077 44.2897 131.296 44.4199 131.465C44.5566 131.634 44.6803 131.842 44.791 132.09C44.9082 132.337 44.9863 132.62 45.0254 132.939C44.9212 133.154 44.6445 133.441 44.1953 133.799C43.7461 134.157 43.1569 134.479 42.4277 134.766C41.6986 135.052 40.8815 135.195 39.9766 135.195C37.8607 135.195 36.334 134.535 35.3965 133.213C34.459 131.891 33.9902 130 33.9902 127.539ZM49.1562 128.564C49.5404 128.564 49.9635 128.604 50.4258 128.682C50.8945 128.76 51.3242 128.854 51.7148 128.965V128.662C51.7148 128.46 51.7083 128.236 51.6953 127.988C51.6888 127.741 51.6758 127.578 51.6562 127.5C51.5977 127.389 51.4284 127.275 51.1484 127.158C50.875 127.041 50.4258 126.982 49.8008 126.982C49.4167 126.982 49.0195 127.031 48.6094 127.129C48.2057 127.22 47.7565 127.344 47.2617 127.5C46.9948 127.057 46.7799 126.637 46.6172 126.24C46.4609 125.837 46.3828 125.433 46.3828 125.029C46.3828 124.906 46.3926 124.782 46.4121 124.658C47.4668 123.838 48.8307 123.428 50.5039 123.428C51.4284 123.428 52.2487 123.532 52.9648 123.74C53.681 123.949 54.2702 124.352 54.7324 124.951C55.1947 125.55 55.4258 126.4 55.4258 127.5C55.4258 128.574 55.2988 129.616 55.0449 130.625C54.7975 131.628 54.6706 132.139 54.6641 132.158L56.0801 131.553C56.2689 131.755 56.4349 132.002 56.5781 132.295C56.7279 132.581 56.8223 132.913 56.8613 133.291C56.7702 133.486 56.5716 133.737 56.2656 134.043C55.9596 134.342 55.5853 134.609 55.1426 134.844C54.6999 135.078 54.2376 135.195 53.7559 135.195C53.2155 135.195 52.8053 135.036 52.5254 134.717C52.252 134.398 52.1152 133.984 52.1152 133.477C52.1152 133.19 52.1576 132.9 52.2422 132.607L51.9492 132.52C51.7669 133.548 51.3796 134.251 50.7871 134.629C50.1947 135.007 49.5404 135.195 48.8242 135.195C48.3555 135.195 47.903 135.065 47.4668 134.805C47.0306 134.538 46.6758 134.154 46.4023 133.652C46.1289 133.145 45.9922 132.552 45.9922 131.875C45.9922 130.794 46.2624 129.974 46.8027 129.414C47.3431 128.848 48.1276 128.564 49.1562 128.564ZM50.2695 132.285C50.4323 132.253 50.6243 132.161 50.8457 132.012C51.0736 131.862 51.2754 131.683 51.4512 131.475C51.627 131.266 51.7311 131.068 51.7637 130.879L51.7051 130.645C51.36 130.599 50.9922 130.576 50.6016 130.576C50.2695 130.576 50.0417 130.602 49.918 130.654C49.7096 130.889 49.6055 131.149 49.6055 131.436C49.6055 131.644 49.6576 131.833 49.7617 132.002C49.8724 132.171 50.0417 132.266 50.2695 132.285ZM58.1406 129.609C58.1406 128.548 58.1569 127.581 58.1895 126.709L57.125 126.523C57.0404 126.198 56.9818 125.911 56.9492 125.664C56.9167 125.417 56.9004 125.153 56.9004 124.873L56.9199 124.678C56.9395 124.587 56.9492 124.512 56.9492 124.453L58.3652 124.141C58.3978 123.737 58.4727 123.281 58.5898 122.773C58.707 122.266 58.8307 121.891 58.9609 121.65C59.1693 121.494 59.4199 121.377 59.7129 121.299C60.0059 121.221 60.3216 121.182 60.6602 121.182C60.9466 121.182 61.2233 121.211 61.4902 121.27C61.7637 121.322 62.0013 121.393 62.2031 121.484C62.2227 121.706 62.2324 121.96 62.2324 122.246C62.2324 122.715 62.2096 123.245 62.1641 123.838L63.8828 123.525C64.1237 123.942 64.2441 124.395 64.2441 124.883C64.2441 125.221 64.2018 125.527 64.1172 125.801C64.0391 126.074 63.9284 126.383 63.7852 126.729C63.3555 126.8 62.7663 126.846 62.0176 126.865C61.9264 127.926 61.7246 129.486 61.4121 131.543L61.3633 131.875L61.3828 131.895L63.6777 131.182C64.153 131.579 64.4427 132.191 64.5469 133.018C64.5469 133.063 64.3353 133.278 63.9121 133.662C63.4954 134.04 62.9714 134.391 62.3398 134.717C61.7083 135.036 61.0215 135.195 60.2793 135.195C58.9837 135.195 58.2936 134.404 58.209 132.822C58.1634 132.021 58.1406 130.951 58.1406 129.609ZM66.1484 131.553C66.7214 131.781 67.1803 131.956 67.5254 132.08C67.8704 132.204 68.248 132.311 68.6582 132.402C69.0749 132.493 69.4883 132.539 69.8984 132.539C70.0807 132.539 70.2109 132.523 70.2891 132.49C70.3086 132.464 70.3249 132.425 70.3379 132.373C70.3574 132.314 70.3672 132.256 70.3672 132.197C70.3672 132.067 70.2923 131.96 70.1426 131.875C69.9082 131.745 69.4915 131.54 68.8926 131.26C68.0723 130.869 67.4212 130.521 66.9395 130.215C66.4642 129.909 66.0605 129.502 65.7285 128.994C65.403 128.486 65.2402 127.848 65.2402 127.08C65.2402 125.98 65.569 125.098 66.2266 124.434C66.8841 123.763 67.9258 123.428 69.3516 123.428C71.0508 123.428 72.3724 123.649 73.3164 124.092C73.362 124.281 73.3848 124.518 73.3848 124.805C73.3848 125.352 73.3001 125.911 73.1309 126.484C72.9616 127.051 72.7402 127.471 72.4668 127.744C72.0957 127.62 71.5716 127.422 70.8945 127.148C70.3997 126.953 70.0059 126.803 69.7129 126.699C69.4264 126.589 69.1628 126.51 68.9219 126.465C68.7917 126.497 68.6875 126.576 68.6094 126.699C68.5312 126.816 68.4922 126.956 68.4922 127.119C68.4922 127.262 68.5345 127.383 68.6191 127.48C68.7038 127.578 68.7982 127.656 68.9023 127.715C69.013 127.767 69.1693 127.839 69.3711 127.93C69.4753 127.975 69.5729 128.018 69.6641 128.057C69.7552 128.089 69.8398 128.122 69.918 128.154C70.4258 128.369 70.8262 128.545 71.1191 128.682C71.4121 128.818 71.6953 128.981 71.9688 129.17C72.4701 129.515 72.8639 129.909 73.1504 130.352C73.4368 130.794 73.5801 131.279 73.5801 131.807C73.5801 132.536 73.3717 133.167 72.9551 133.701C72.5449 134.229 72.0176 134.613 71.373 134.854C71.0345 134.977 70.6634 135.065 70.2598 135.117C69.8626 135.176 69.3971 135.205 68.8633 135.205C68.2318 135.205 67.5807 135.085 66.9102 134.844C66.2461 134.596 65.7383 134.186 65.3867 133.613C65.3932 133.216 65.4453 132.871 65.543 132.578C65.6471 132.279 65.849 131.937 66.1484 131.553ZM82.3008 125.215C82.0404 125.28 81.7637 125.312 81.4707 125.312C80.8392 125.312 80.2891 125.163 79.8203 124.863C79.3581 124.564 79.0781 124.131 78.9805 123.564C79.1823 123.102 79.4818 122.591 79.8789 122.031C80.276 121.465 80.7057 120.934 81.168 120.439C81.6367 119.945 82.0729 119.561 82.4766 119.287L83.7656 120.107L82.3008 125.215ZM85.5625 131.602C85.5625 130.54 85.5755 129.74 85.6016 129.199C85.6276 128.652 85.696 127.852 85.8066 126.797L84.6738 126.65C84.5371 126.227 84.446 125.85 84.4004 125.518C84.3613 125.186 84.3418 124.756 84.3418 124.229C84.446 124.137 84.6185 124.03 84.8594 123.906C85.1068 123.776 85.3997 123.665 85.7383 123.574C86.0768 123.477 86.4186 123.428 86.7637 123.428C87.5514 123.428 88.1081 123.597 88.4336 123.936C88.7656 124.274 88.9316 124.782 88.9316 125.459C88.9316 125.837 88.8763 126.348 88.7656 126.992C88.5833 128.027 88.4922 128.571 88.4922 128.623C88.4922 128.656 88.515 128.688 88.5605 128.721C88.6061 128.747 88.6549 128.76 88.707 128.76C88.7656 128.76 88.8047 128.737 88.8242 128.691C89.0846 127.656 89.3451 126.79 89.6055 126.094C89.8659 125.397 90.2598 124.779 90.7871 124.238C91.3145 123.698 91.998 123.428 92.8379 123.428C93.8796 123.428 94.6283 123.747 95.084 124.385C95.5397 125.016 95.7676 125.814 95.7676 126.777C95.7676 127.637 95.6667 128.467 95.4648 129.268C95.263 130.062 95.0124 130.892 94.7129 131.758C94.7259 131.725 94.6803 131.852 94.5762 132.139L94.5957 132.158L96.0215 131.572C96.5293 132.008 96.8255 132.588 96.9102 133.311C96.9102 133.356 96.7637 133.542 96.4707 133.867C96.1842 134.193 95.8034 134.495 95.3281 134.775C94.8529 135.055 94.306 135.195 93.6875 135.195C93.069 135.195 92.5645 135.029 92.1738 134.697C91.7832 134.365 91.5879 133.799 91.5879 132.998C91.5879 132.36 91.6139 131.507 91.666 130.439C91.7181 129.372 91.7702 128.512 91.8223 127.861C91.653 127.679 91.4447 127.581 91.1973 127.568C90.9694 127.861 90.6341 128.447 90.1914 129.326C89.7487 130.205 89.4362 130.863 89.2539 131.299C89.2409 131.39 89.2344 131.478 89.2344 131.562C89.2344 131.888 89.2832 132.327 89.3809 132.881C89.4785 133.428 89.599 133.939 89.7422 134.414C89.625 134.635 89.3841 134.821 89.0195 134.971C88.6549 135.12 88.2057 135.195 87.6719 135.195C87.1901 135.195 86.8027 135.156 86.5098 135.078C86.2233 135 86.0215 134.919 85.9043 134.834C85.7871 134.743 85.7285 134.688 85.7285 134.668C85.722 134.609 85.7057 134.456 85.6797 134.209C85.6536 133.955 85.6276 133.604 85.6016 133.154C85.5755 132.699 85.5625 132.181 85.5625 131.602ZM101.959 127.539C101.959 126.061 102.177 124.746 102.613 123.594C103.056 122.435 103.746 121.52 104.684 120.85C105.621 120.179 106.806 119.844 108.238 119.844C109.215 119.844 110.247 119.971 111.334 120.225C111.686 120.433 111.992 120.651 112.252 120.879C112.519 121.1 112.773 121.37 113.014 121.689C113.014 122.152 112.952 122.767 112.828 123.535C112.704 124.297 112.548 125.01 112.359 125.674C112.177 126.331 112.001 126.758 111.832 126.953C111.663 127.038 111.52 127.096 111.402 127.129C111.285 127.155 111.103 127.168 110.855 127.168C110.549 127.168 110.263 127.145 109.996 127.1C109.729 127.054 109.527 126.992 109.391 126.914L109.049 123.623C108.587 123.493 107.945 123.428 107.125 123.428C106.904 123.428 106.741 123.431 106.637 123.438C106.357 124.336 106.201 125.544 106.168 127.061C106.161 127.243 106.158 127.52 106.158 127.891C106.158 128.763 106.204 129.469 106.295 130.01C106.38 130.518 106.471 130.898 106.568 131.152C106.666 131.406 106.835 131.602 107.076 131.738C107.324 131.875 107.691 131.943 108.18 131.943C108.837 131.943 109.443 131.849 109.996 131.66C110.556 131.465 111.165 131.182 111.822 130.811C112.07 131.077 112.258 131.296 112.389 131.465C112.525 131.634 112.649 131.842 112.76 132.09C112.877 132.337 112.955 132.62 112.994 132.939C112.89 133.154 112.613 133.441 112.164 133.799C111.715 134.157 111.126 134.479 110.396 134.766C109.667 135.052 108.85 135.195 107.945 135.195C105.829 135.195 104.303 134.535 103.365 133.213C102.428 131.891 101.959 130 101.959 127.539ZM113.98 129.229C113.98 128.05 114.169 127.028 114.547 126.162C114.924 125.296 115.504 124.626 116.285 124.15C117.066 123.669 118.046 123.428 119.225 123.428C120.527 123.428 121.549 123.672 122.291 124.16C123.033 124.642 123.551 125.312 123.844 126.172C124.143 127.031 124.293 128.083 124.293 129.326C124.293 130.452 124.094 131.458 123.697 132.344C123.307 133.223 122.714 133.919 121.92 134.434C121.132 134.941 120.165 135.195 119.02 135.195C117.249 135.195 115.966 134.652 115.172 133.564C114.378 132.471 113.98 131.025 113.98 129.229ZM119.42 132.334C119.752 132.334 119.954 132.308 120.025 132.256C120.175 131.995 120.289 131.628 120.367 131.152C120.445 130.677 120.484 130.163 120.484 129.609C120.484 129.102 120.452 128.626 120.387 128.184C120.322 127.734 120.23 127.383 120.113 127.129C120.042 127.044 119.898 126.982 119.684 126.943C119.469 126.898 119.234 126.875 118.98 126.875C118.648 126.875 118.421 126.911 118.297 126.982C117.971 127.542 117.809 128.32 117.809 129.316C117.809 129.785 117.844 130.264 117.916 130.752C117.988 131.24 118.079 131.683 118.189 132.08C118.268 132.165 118.427 132.23 118.668 132.275C118.909 132.314 119.16 132.334 119.42 132.334ZM127.203 136.416C127.249 136.279 127.281 136.104 127.301 135.889C127.327 135.68 127.333 135.475 127.32 135.273C127.301 134.811 127.265 134.176 127.213 133.369C127.148 132.275 127.099 131.37 127.066 130.654C127.034 129.938 127.018 129.258 127.018 128.613C127.018 128.392 127.024 128.092 127.037 127.715L127.047 127.48L125.748 127.305C125.657 127.005 125.595 126.712 125.562 126.426C125.536 126.139 125.527 125.791 125.533 125.381C125.95 125.16 126.523 124.961 127.252 124.785L127.291 124.629C126.855 124.238 126.51 123.812 126.256 123.35C126.002 122.887 125.875 122.402 125.875 121.895C125.875 121.309 126.038 120.811 126.363 120.4C126.689 119.984 127.145 119.671 127.73 119.463C128.323 119.255 129.016 119.15 129.811 119.15C130.279 119.15 130.748 119.176 131.217 119.229C131.692 119.274 132.265 119.391 132.936 119.58C133.027 119.854 133.072 120.173 133.072 120.537C133.072 120.947 133.02 121.374 132.916 121.816C132.818 122.253 132.682 122.63 132.506 122.949C131.874 122.747 131.367 122.594 130.982 122.49C130.605 122.386 130.188 122.301 129.732 122.236C129.635 122.256 129.544 122.308 129.459 122.393C129.381 122.471 129.335 122.546 129.322 122.617C129.381 122.917 129.505 123.265 129.693 123.662C129.889 124.059 130.107 124.421 130.348 124.746L133.062 124.248C133.29 124.587 133.404 125.072 133.404 125.703C133.404 126.087 133.362 126.455 133.277 126.807C133.199 127.158 133.102 127.399 132.984 127.529C132.9 127.536 132.776 127.539 132.613 127.539C131.982 127.539 131.406 127.461 130.885 127.305C130.859 128.073 130.836 128.62 130.816 128.945C130.81 129.193 130.794 129.609 130.768 130.195L130.709 131.807C130.676 132.738 130.644 133.506 130.611 134.111C130.579 134.717 130.53 135.296 130.465 135.85C130.406 136.377 130.325 136.826 130.221 137.197C130.123 137.575 129.97 137.904 129.762 138.184C129.247 138.874 128.401 139.219 127.223 139.219C126.754 139.219 126.285 139.128 125.816 138.945C125.354 138.77 124.996 138.483 124.742 138.086C124.729 137.695 124.788 137.301 124.918 136.904C125.042 136.514 125.23 136.178 125.484 135.898L127.203 136.416ZM135.875 136.416C135.921 136.279 135.953 136.104 135.973 135.889C135.999 135.68 136.005 135.475 135.992 135.273C135.973 134.811 135.937 134.176 135.885 133.369C135.82 132.275 135.771 131.37 135.738 130.654C135.706 129.938 135.689 129.258 135.689 128.613C135.689 128.392 135.696 128.092 135.709 127.715L135.719 127.48L134.42 127.305C134.329 127.005 134.267 126.712 134.234 126.426C134.208 126.139 134.199 125.791 134.205 125.381C134.622 125.16 135.195 124.961 135.924 124.785L135.963 124.629C135.527 124.238 135.182 123.812 134.928 123.35C134.674 122.887 134.547 122.402 134.547 121.895C134.547 121.309 134.71 120.811 135.035 120.4C135.361 119.984 135.816 119.671 136.402 119.463C136.995 119.255 137.688 119.15 138.482 119.15C138.951 119.15 139.42 119.176 139.889 119.229C140.364 119.274 140.937 119.391 141.607 119.58C141.699 119.854 141.744 120.173 141.744 120.537C141.744 120.947 141.692 121.374 141.588 121.816C141.49 122.253 141.354 122.63 141.178 122.949C140.546 122.747 140.038 122.594 139.654 122.49C139.277 122.386 138.86 122.301 138.404 122.236C138.307 122.256 138.215 122.308 138.131 122.393C138.053 122.471 138.007 122.546 137.994 122.617C138.053 122.917 138.176 123.265 138.365 123.662C138.561 124.059 138.779 124.421 139.02 124.746L141.734 124.248C141.962 124.587 142.076 125.072 142.076 125.703C142.076 126.087 142.034 126.455 141.949 126.807C141.871 127.158 141.773 127.399 141.656 127.529C141.572 127.536 141.448 127.539 141.285 127.539C140.654 127.539 140.077 127.461 139.557 127.305C139.531 128.073 139.508 128.62 139.488 128.945C139.482 129.193 139.465 129.609 139.439 130.195L139.381 131.807C139.348 132.738 139.316 133.506 139.283 134.111C139.251 134.717 139.202 135.296 139.137 135.85C139.078 136.377 138.997 136.826 138.893 137.197C138.795 137.575 138.642 137.904 138.434 138.184C137.919 138.874 137.073 139.219 135.895 139.219C135.426 139.219 134.957 139.128 134.488 138.945C134.026 138.77 133.668 138.483 133.414 138.086C133.401 137.695 133.456 137.301 133.58 136.904C133.71 136.514 133.902 136.178 134.156 135.898L135.875 136.416ZM142.945 129.326C142.945 128.2 143.134 127.194 143.512 126.309C143.889 125.423 144.472 124.723 145.26 124.209C146.054 123.688 147.044 123.428 148.229 123.428C148.847 123.428 149.465 123.503 150.084 123.652C150.702 123.796 151.227 124.036 151.656 124.375C152.053 124.694 152.34 125.117 152.516 125.645C152.698 126.165 152.789 126.745 152.789 127.383C152.789 127.806 152.753 128.239 152.682 128.682C152.604 128.812 152.451 128.984 152.223 129.199C151.995 129.408 151.728 129.613 151.422 129.814C151.116 130.016 150.82 130.173 150.533 130.283C150.26 130.303 149.977 130.312 149.684 130.312C149.169 130.312 148.648 130.29 148.121 130.244C147.594 130.199 147.132 130.146 146.734 130.088C146.786 130.641 146.956 131.123 147.242 131.533C147.529 131.943 147.984 132.148 148.609 132.148C148.668 132.148 148.762 132.142 148.893 132.129C149.29 132.09 149.752 131.986 150.279 131.816C150.813 131.641 151.344 131.439 151.871 131.211C152.118 131.458 152.301 131.706 152.418 131.953C152.535 132.201 152.617 132.555 152.662 133.018C152.46 133.252 152.132 133.538 151.676 133.877C151.227 134.215 150.676 134.521 150.025 134.795C149.374 135.062 148.694 135.195 147.984 135.195C146.917 135.195 146.002 134.938 145.24 134.424C144.485 133.903 143.912 133.2 143.521 132.314C143.137 131.423 142.945 130.426 142.945 129.326ZM149.234 127.08C149.143 126.982 148.99 126.908 148.775 126.855C148.561 126.797 148.336 126.768 148.102 126.768C147.913 126.768 147.721 126.784 147.525 126.816C147.337 126.849 147.223 126.885 147.184 126.924C146.962 127.36 146.822 127.855 146.764 128.408L149.371 128.154L149.234 127.08ZM154.078 129.326C154.078 128.2 154.267 127.194 154.645 126.309C155.022 125.423 155.605 124.723 156.393 124.209C157.187 123.688 158.176 123.428 159.361 123.428C159.98 123.428 160.598 123.503 161.217 123.652C161.835 123.796 162.359 124.036 162.789 124.375C163.186 124.694 163.473 125.117 163.648 125.645C163.831 126.165 163.922 126.745 163.922 127.383C163.922 127.806 163.886 128.239 163.814 128.682C163.736 128.812 163.583 128.984 163.355 129.199C163.128 129.408 162.861 129.613 162.555 129.814C162.249 130.016 161.952 130.173 161.666 130.283C161.393 130.303 161.109 130.312 160.816 130.312C160.302 130.312 159.781 130.29 159.254 130.244C158.727 130.199 158.264 130.146 157.867 130.088C157.919 130.641 158.089 131.123 158.375 131.533C158.661 131.943 159.117 132.148 159.742 132.148C159.801 132.148 159.895 132.142 160.025 132.129C160.423 132.09 160.885 131.986 161.412 131.816C161.946 131.641 162.477 131.439 163.004 131.211C163.251 131.458 163.434 131.706 163.551 131.953C163.668 132.201 163.749 132.555 163.795 133.018C163.593 133.252 163.264 133.538 162.809 133.877C162.359 134.215 161.809 134.521 161.158 134.795C160.507 135.062 159.827 135.195 159.117 135.195C158.049 135.195 157.135 134.938 156.373 134.424C155.618 133.903 155.045 133.2 154.654 132.314C154.27 131.423 154.078 130.426 154.078 129.326ZM160.367 127.08C160.276 126.982 160.123 126.908 159.908 126.855C159.693 126.797 159.469 126.768 159.234 126.768C159.046 126.768 158.854 126.784 158.658 126.816C158.469 126.849 158.355 126.885 158.316 126.924C158.095 127.36 157.955 127.855 157.896 128.408L160.504 128.154L160.367 127.08Z" fill="black"/>
<ellipse cx="99.2386" cy="106.977" rx="26.2417" ry="3.33228" fill="black"/>
<path d="M134.212 67.8228C134.726 65.0743 135.061 61.9913 135.061 59.0756L129.229 59.0756M134.212 67.8228C135.189 66.8509 138.476 65.0737 140.476 65.7401C142.975 66.5732 144.572 70.1772 143.808 77.8196C142.142 94.481 128.396 94.8976 125.053 91.5653M134.212 67.8228C132.798 75.3772 130.434 84.4085 125.053 91.5653M125.053 91.5653C119.643 98.7607 111.183 104.061 97.5724 104.061C72.2449 104.061 63.6942 73.6543 63 59.0756H69.248M69.248 59.0756H75.9126C76.3291 60.6028 77.4121 63.2409 78.4118 64.9071C79.4115 66.5732 80.2353 68.2393 82.9937 68.2393C85.752 68.2393 87.9921 66.9898 88.8252 64.9071C89.6582 62.8244 89.6582 59.0756 89.6582 59.0756H108.819C108.819 60.1863 108.985 62.7411 109.652 64.074C110.485 65.7401 111.728 68.2393 115.067 68.2393C121.731 68.2393 122.148 62.8244 122.565 59.0756H129.229M69.248 59.0756C69.248 56.1599 69.7298 53.5172 71.7472 49.0788C75.9126 39.915 82.4383 36.8604 86.326 35.3331C90.6302 33.9446 101.988 32.0008 112.984 35.3331C123.981 38.6654 129.229 52.8276 129.229 59.0756" stroke="black" stroke-width="2"/>
<circle cx="87.159" cy="50.3284" r="4.49842" stroke="black"/>
<circle cx="111.318" cy="50.3284" r="4.49842" stroke="black"/>
<ellipse cx="87.5756" cy="50.3284" rx="2.08268" ry="3.33228" fill="black"/>
<ellipse cx="110.902" cy="50.3284" rx="2.08268" ry="3.33228" fill="black"/>
<path d="M96.7393 51.1614C97.4058 50.8282 98.6832 51.0226 99.2385 51.1614C99.6551 51.0226 100.993 50.4163 101.738 51.1614C102.571 51.9945 101.738 52.8276 100.905 53.6607L99.2385 54.9103C99.2385 54.9103 97.1559 53.2441 96.7393 52.8276C96.3228 52.4111 96.0729 51.4947 96.7393 51.1614Z" fill="black" stroke="black"/>
<path d="M74.2465 44.4968C74.3853 39.7761 73.8299 31.1677 77.5787 29.085C82.7286 26.2239 89.2417 32.4173 91.7409 34.0834" stroke="black" stroke-width="2"/>
<path d="M124.647 45.3299C124.508 40.6092 124.231 32.0008 121.315 29.2198C117.052 25.1536 109.235 32.4174 106.736 34.0835" stroke="black" stroke-width="2"/>
<path d="M74.663 48.6622L80.4945 50.3284" stroke="#1E1E1E" stroke-linecap="round" stroke-linejoin="round"/>
<path d="M123.814 48.6622L117.983 50.3284" stroke="#1E1E1E" stroke-linecap="round" stroke-linejoin="round"/>
<path d="M74.663 56.1599L79.6614 54.4937" stroke="#1E1E1E" stroke-linecap="round" stroke-linejoin="round"/>
<path d="M122.981 56.1599L117.15 54.4937" stroke="#1E1E1E" stroke-linecap="round" stroke-linejoin="round"/>
<path d="M74.663 51.9945H80.4945" stroke="#1E1E1E" stroke-linecap="round" stroke-linejoin="round"/>
<path d="M117.983 51.9945H124.647" stroke="#1E1E1E" stroke-linecap="round" stroke-linejoin="round"/>
<path d="M96.2098 26C98.7098 24 103.51 19.3 102.71 16.5C101.71 13 94.7098 13 96.2098 8C97.4098 4 99.7098 1.66667 100.71 1" stroke="black" stroke-width="2" stroke-linecap="round"/>
</svg>
